<svg width="32" height="32" viewBox="0 0 32 32" fill="none" xmlns="http://www.w3.org/2000/svg">
<path fill-rule="evenodd" clip-rule="evenodd" d="M20.6657 26.3338C20.4924 26.3338 20.3177 26.2898 20.1577 26.1952C19.1524 25.5992 10.3337 20.2552 10.3337 16.0005C10.3337 11.7472 19.1511 6.40182 20.1577 5.80582C20.6311 5.52449 21.2471 5.68182 21.5271 6.15782C21.8084 6.63382 21.6511 7.24716 21.1764 7.52849C17.7577 9.55382 12.3337 13.6445 12.3337 16.0005C12.3337 18.3605 17.7577 22.4498 21.1764 24.4725C21.6511 24.7538 21.8084 25.3672 21.5271 25.8432C21.3404 26.1578 21.0084 26.3338 20.6657 26.3338Z" fill="#00BBAE"/>
<path d="M20.6657 26.3338C20.4924 26.3338 20.3177 26.2898 20.1577 26.1952C19.1524 25.5992 10.3337 20.2552 10.3337 16.0005C10.3337 11.7472 19.1511 6.40182 20.1577 5.80582C20.6311 5.52449 21.2471 5.68182 21.5271 6.15782C21.8084 6.63382 21.6511 7.24716 21.1764 7.52849C17.7577 9.55382 12.3337 13.6445 12.3337 16.0005C12.3337 18.3605 17.7577 22.4498 21.1764 24.4725C21.6511 24.7538 21.8084 25.3672 21.5271 25.8432C21.3404 26.1578 21.0084 26.3338 20.6657 26.3338" stroke="#00BBAE"/>
</svg>
