<svg width="32" height="32" viewBox="0 0 32 32" fill="none" xmlns="http://www.w3.org/2000/svg">
<path fill-rule="evenodd" clip-rule="evenodd" d="M11.3343 26.3338C11.5076 26.3338 11.6823 26.2898 11.8423 26.1952C12.8476 25.5992 21.6663 20.2552 21.6663 16.0005C21.6663 11.7472 12.8489 6.40182 11.8423 5.80582C11.3689 5.52449 10.7529 5.68182 10.4729 6.15782C10.1916 6.63382 10.3489 7.24716 10.8236 7.52849C14.2423 9.55382 19.6663 13.6445 19.6663 16.0005C19.6663 18.3605 14.2423 22.4498 10.8236 24.4725C10.3489 24.7538 10.1916 25.3672 10.4729 25.8432C10.6596 26.1578 10.9916 26.3338 11.3343 26.3338Z" fill="#00BBAE"/>
<path d="M11.3343 26.3338C11.5076 26.3338 11.6823 26.2898 11.8423 26.1952C12.8476 25.5992 21.6663 20.2552 21.6663 16.0005C21.6663 11.7472 12.8489 6.40182 11.8423 5.80582C11.3689 5.52449 10.7529 5.68182 10.4729 6.15782C10.1916 6.63382 10.3489 7.24716 10.8236 7.52849C14.2423 9.55382 19.6663 13.6445 19.6663 16.0005C19.6663 18.3605 14.2423 22.4498 10.8236 24.4725C10.3489 24.7538 10.1916 25.3672 10.4729 25.8432C10.6596 26.1578 10.9916 26.3338 11.3343 26.3338" stroke="#00BBAE"/>
</svg>
