<svg width="38" height="38" viewBox="0 0 38 38" fill="none" xmlns="http://www.w3.org/2000/svg">
<circle cx="19" cy="19" r="19" fill="black" fill-opacity="0.12"/>
<path fill-rule="evenodd" clip-rule="evenodd" d="M19 11C14.0125 11 10 14.8839 10 19.7115C10 23.5591 12.5875 26.8259 16.15 27.9874C16.6 28.06 16.75 27.8059 16.75 27.5518C16.75 27.334 16.75 26.7896 16.75 26.0636C14.2375 26.6081 13.7125 24.9021 13.7125 24.9021C13.3 23.8857 12.7 23.6317 12.7 23.6317C11.875 23.0872 12.775 23.0872 12.775 23.0872C13.675 23.1598 14.1625 23.9946 14.1625 23.9946C14.95 25.3377 16.2625 24.9384 16.7875 24.7206C16.8625 24.1398 17.0875 23.7769 17.35 23.5591C15.3625 23.3413 13.2625 22.579 13.2625 19.2396C13.2625 18.2959 13.6 17.4973 14.2 16.9166C14.125 16.6988 13.7875 15.8276 14.275 14.5935C14.275 14.5935 15.025 14.3757 16.75 15.5009C17.4625 15.3194 18.25 15.2106 19 15.2106C19.75 15.2106 20.5375 15.3194 21.25 15.5009C22.975 14.3757 23.725 14.5935 23.725 14.5935C24.2125 15.7913 23.9125 16.6625 23.8 16.9166C24.3625 17.5336 24.7375 18.2959 24.7375 19.2396C24.7375 22.579 22.6375 23.305 20.6125 23.5228C20.95 23.7769 21.2125 24.3213 21.2125 25.1199C21.2125 26.2814 21.2125 27.2252 21.2125 27.5155C21.2125 27.7333 21.3625 28.0237 21.85 27.9511C25.4125 26.8259 28 23.5591 28 19.7115C28 14.8839 23.9875 11 19 11Z" fill="black"/>
</svg>
