<svg width="38" height="38" viewBox="0 0 38 38" fill="none" xmlns="http://www.w3.org/2000/svg">
<circle cx="19" cy="19" r="19" fill="black" fill-opacity="0.12"/>
<path d="M19 11.6216C21.403 11.6216 21.6876 11.6306 22.6369 11.6739C23.2076 11.6809 23.773 11.7857 24.3083 11.9838C24.6965 12.1335 25.0491 12.3628 25.3433 12.657C25.6375 12.9512 25.8669 13.3038 26.0166 13.692C26.2146 14.2273 26.3194 14.7926 26.3264 15.3633C26.3693 16.3126 26.3787 16.5971 26.3787 19C26.3787 21.4029 26.3697 21.6874 26.3264 22.6367C26.3194 23.2074 26.2146 23.7727 26.0166 24.308C25.8669 24.6962 25.6375 25.0488 25.3433 25.343C25.0491 25.6372 24.6965 25.8665 24.3083 26.0162C23.773 26.2143 23.2076 26.3191 22.6369 26.3261C21.688 26.3689 21.4034 26.3784 19 26.3784C16.5966 26.3784 16.312 26.3694 15.3631 26.3261C14.7924 26.3191 14.227 26.2143 13.6917 26.0162C13.3035 25.8665 12.9509 25.6372 12.6567 25.343C12.3625 25.0488 12.1331 24.6962 11.9834 24.308C11.7854 23.7727 11.6806 23.2074 11.6736 22.6367C11.6307 21.6874 11.6213 21.4029 11.6213 19C11.6213 16.5971 11.6303 16.3126 11.6736 15.3633C11.6806 14.7926 11.7854 14.2273 11.9834 13.692C12.1331 13.3038 12.3625 12.9512 12.6567 12.657C12.9509 12.3628 13.3035 12.1335 13.6917 11.9838C14.227 11.7857 14.7924 11.6809 15.3631 11.6739C16.3124 11.6311 16.597 11.6216 19 11.6216ZM19 10C16.5571 10 16.2494 10.0103 15.2894 10.054C14.5424 10.0689 13.8034 10.2103 13.1037 10.4723C12.5035 10.6984 11.9599 11.0528 11.5107 11.5106C11.0524 11.9599 10.6977 12.5039 10.4714 13.1044C10.2094 13.8041 10.068 14.5431 10.0531 15.29C10.0103 16.2491 10 16.5568 10 18.9996C10 21.4423 10.0103 21.75 10.054 22.71C10.0689 23.4569 10.2103 24.1959 10.4723 24.8956C10.6983 25.4961 11.0527 26.04 11.5107 26.4894C11.9601 26.9473 12.504 27.3017 13.1046 27.5277C13.8043 27.7897 14.5433 27.9311 15.2903 27.946C16.2503 27.9889 16.5567 28 19.0009 28C21.445 28 21.7514 27.9897 22.7114 27.946C23.4584 27.9311 24.1975 27.7897 24.8971 27.5277C25.4948 27.2961 26.0376 26.9422 26.4907 26.4889C26.9438 26.0355 27.2973 25.4925 27.5286 24.8947C27.7906 24.1951 27.932 23.4561 27.9469 22.7091C27.9897 21.75 28 21.4423 28 18.9996C28 16.5568 27.9897 16.2491 27.946 15.2892C27.9311 14.5422 27.7897 13.8032 27.5277 13.1036C27.3017 12.5031 26.9473 11.9592 26.4893 11.5098C26.0399 11.0518 25.496 10.6974 24.8954 10.4714C24.1957 10.2094 23.4567 10.068 22.7097 10.0531C21.7506 10.0103 21.4429 10 19 10Z" fill="black"/>
<path d="M18.5 15C17.61 15 16.74 15.2639 15.9999 15.7584C15.2599 16.2529 14.6831 16.9557 14.3425 17.7779C14.0019 18.6002 13.9128 19.505 14.0865 20.3779C14.2601 21.2508 14.6887 22.0526 15.318 22.682C15.9474 23.3113 16.7492 23.7399 17.6221 23.9135C18.495 24.0872 19.3998 23.998 20.2221 23.6575C21.0443 23.3169 21.7471 22.7401 22.2416 22.0001C22.7361 21.26 23 20.39 23 19.5C23 18.3065 22.5259 17.1619 21.682 16.318C20.8381 15.4741 19.6935 15 18.5 15ZM18.5 22.421C17.9223 22.421 17.3575 22.2497 16.8772 21.9287C16.3968 21.6078 16.0224 21.1516 15.8014 20.6178C15.5803 20.0841 15.5224 19.4968 15.6351 18.9301C15.7478 18.3635 16.026 17.8431 16.4345 17.4345C16.8431 17.026 17.3635 16.7478 17.9301 16.6351C18.4968 16.5224 19.0841 16.5803 19.6178 16.8014C20.1516 17.0224 20.6078 17.3968 20.9287 17.8772C21.2497 18.3575 21.421 18.9223 21.421 19.5C21.421 20.2747 21.1132 21.0177 20.5655 21.5655C20.0177 22.1132 19.2747 22.421 18.5 22.421Z" fill="black"/>
<path d="M24 15C24.5523 15 25 14.5523 25 14C25 13.4477 24.5523 13 24 13C23.4477 13 23 13.4477 23 14C23 14.5523 23.4477 15 24 15Z" fill="black"/>
</svg>
