<svg width="38" height="38" viewBox="0 0 38 38" fill="none" xmlns="http://www.w3.org/2000/svg">
<circle cx="19" cy="19" r="19" fill="black" fill-opacity="0.12"/>
<path d="M27 14.3918C26.4375 14.6392 25.8438 14.7938 25.2188 14.8866C25.8438 14.5155 26.3438 13.9278 26.5625 13.2165C25.9688 13.5567 25.3125 13.8041 24.5938 13.9588C24.0312 13.3711 23.2187 13 22.3438 13C20.6562 13 19.2812 14.3608 19.2812 16.0309C19.2812 16.2784 19.3125 16.4948 19.375 16.7113C16.8438 16.5876 14.5625 15.3814 13.0312 13.5258C12.7812 13.9897 12.625 14.4845 12.625 15.0412C12.625 16.0928 13.1562 17.0206 14 17.5773C13.5 17.5464 13.0312 17.4227 12.5938 17.2062V17.2371C12.5938 18.7216 13.6562 19.9588 15.0625 20.2371C14.8125 20.299 14.5312 20.3299 14.25 20.3299C14.0625 20.3299 13.8438 20.299 13.6562 20.268C14.0625 21.4742 15.1875 22.3711 16.5312 22.3711C15.4688 23.1753 14.1562 23.6701 12.7188 23.6701C12.4687 23.6701 12.2188 23.6701 12 23.6392C13.375 24.5052 14.9688 25 16.7188 25C22.375 25 25.4688 20.3608 25.4688 16.3402C25.4688 16.2165 25.4688 16.0619 25.4688 15.9381C26.0625 15.5361 26.5938 15.0103 27 14.3918Z" fill="black"/>
</svg>
